<svg width="512" height="512" viewBox="0 0 512 512" fill="none" xmlns="http://www.w3.org/2000/svg">
  <defs>
    <radialGradient id="markBg" cx="0" cy="0" r="1" gradientUnits="userSpaceOnUse" gradientTransform="translate(186 146) rotate(44.1) scale(458.987 286.065)">
      <stop stop-color="#14213D"/>
      <stop offset="0.58" stop-color="#0B1220"/>
      <stop offset="1" stop-color="#040814"/>
    </radialGradient>
    <linearGradient id="markRing" x1="100" y1="98" x2="408" y2="404" gradientUnits="userSpaceOnUse">
      <stop stop-color="#7DD3FC"/>
      <stop offset="0.48" stop-color="#A78BFA"/>
      <stop offset="1" stop-color="#F59E0B"/>
    </linearGradient>
    <linearGradient id="markK" x1="178" y1="146" x2="328" y2="352" gradientUnits="userSpaceOnUse">
      <stop stop-color="#F8FAFC"/>
      <stop offset="1" stop-color="#CBD5E1"/>
    </linearGradient>
    <linearGradient id="markSpark" x1="318" y1="88" x2="390" y2="162" gradientUnits="userSpaceOnUse">
      <stop stop-color="#FDE68A"/>
      <stop offset="1" stop-color="#F97316"/>
    </linearGradient>
  </defs>
  <rect x="16" y="16" width="480" height="480" rx="88" fill="url(#markBg)"/>
  <rect x="16" y="16" width="480" height="480" rx="88" stroke="#1E293B" stroke-width="4"/>
  <circle cx="256" cy="256" r="154" fill="#0F172A"/>
  <circle cx="256" cy="256" r="154" stroke="url(#markRing)" stroke-width="18"/>
  <circle cx="256" cy="256" r="114" stroke="#334155" stroke-width="5"/>
  <ellipse cx="256" cy="256" rx="134" ry="56" stroke="url(#markRing)" stroke-width="12"/>
  <ellipse cx="256" cy="256" rx="134" ry="56" transform="rotate(58 256 256)" stroke="#7DD3FC" stroke-opacity="0.6" stroke-width="10"/>
  <ellipse cx="256" cy="256" rx="134" ry="56" transform="rotate(-58 256 256)" stroke="#475569" stroke-width="9"/>
  <circle cx="123" cy="256" r="10" fill="#A78BFA"/>
  <circle cx="185" cy="171" r="10" fill="#7DD3FC"/>
  <circle cx="388" cy="257" r="10" fill="#F59E0B"/>
  <path d="M196 166V346" stroke="url(#markK)" stroke-width="28" stroke-linecap="round"/>
  <path d="M213 256L330 168" stroke="url(#markK)" stroke-width="28" stroke-linecap="round"/>
  <path d="M213 256L338 354" stroke="url(#markK)" stroke-width="28" stroke-linecap="round"/>
  <path d="M365 86L377 119L410 131L377 143L365 176L353 143L320 131L353 119L365 86Z" fill="url(#markSpark)"/>
</svg>
