<svg width="1280" height="320" viewBox="0 0 1280 320" fill="none" xmlns="http://www.w3.org/2000/svg">
  <defs>
    <radialGradient id="logoBg" cx="0" cy="0" r="1" gradientUnits="userSpaceOnUse" gradientTransform="translate(252 104) rotate(44.6) scale(1147.44 724.962)">
      <stop stop-color="#14213D"/>
      <stop offset="0.58" stop-color="#0B1220"/>
      <stop offset="1" stop-color="#040814"/>
    </radialGradient>
    <linearGradient id="logoRing" x1="86" y1="72" x2="292" y2="268" gradientUnits="userSpaceOnUse">
      <stop stop-color="#7DD3FC"/>
      <stop offset="0.48" stop-color="#A78BFA"/>
      <stop offset="1" stop-color="#F59E0B"/>
    </linearGradient>
    <linearGradient id="logoK" x1="140" y1="96" x2="240" y2="224" gradientUnits="userSpaceOnUse">
      <stop stop-color="#F8FAFC"/>
      <stop offset="1" stop-color="#CBD5E1"/>
    </linearGradient>
    <linearGradient id="logoSpark" x1="226" y1="56" x2="284" y2="118" gradientUnits="userSpaceOnUse">
      <stop stop-color="#FDE68A"/>
      <stop offset="1" stop-color="#F97316"/>
    </linearGradient>
  </defs>
  <rect x="8" y="8" width="1264" height="304" rx="36" fill="url(#logoBg)"/>
  <rect x="8" y="8" width="1264" height="304" rx="36" stroke="#1E293B" stroke-width="2"/>
  <circle cx="1166" cy="74" r="2.5" fill="#F8FAFC" fill-opacity="0.6"/>
  <circle cx="1118" cy="108" r="2" fill="#7DD3FC" fill-opacity="0.5"/>
  <circle cx="1078" cy="72" r="1.75" fill="#F59E0B" fill-opacity="0.55"/>
  <path d="M1078 72L1118 108L1166 74" stroke="#334155" stroke-width="1.5" stroke-linecap="round"/>
  <circle cx="182" cy="160" r="94" fill="#0F172A"/>
  <circle cx="182" cy="160" r="94" stroke="url(#logoRing)" stroke-width="11"/>
  <circle cx="182" cy="160" r="70" stroke="#334155" stroke-width="3"/>
  <ellipse cx="182" cy="160" rx="82" ry="34" stroke="url(#logoRing)" stroke-width="8"/>
  <ellipse cx="182" cy="160" rx="82" ry="34" transform="rotate(58 182 160)" stroke="#7DD3FC" stroke-opacity="0.6" stroke-width="7"/>
  <ellipse cx="182" cy="160" rx="82" ry="34" transform="rotate(-58 182 160)" stroke="#475569" stroke-width="6"/>
  <circle cx="101" cy="160" r="6.5" fill="#A78BFA"/>
  <circle cx="139" cy="108" r="6.5" fill="#7DD3FC"/>
  <circle cx="262" cy="161" r="6.5" fill="#F59E0B"/>
  <path d="M146 104V216" stroke="url(#logoK)" stroke-width="18" stroke-linecap="round"/>
  <path d="M157 160L229 106" stroke="url(#logoK)" stroke-width="18" stroke-linecap="round"/>
  <path d="M157 160L233 220" stroke="url(#logoK)" stroke-width="18" stroke-linecap="round"/>
  <path d="M250 56L259 79L282 88L259 97L250 120L241 97L218 88L241 79L250 56Z" fill="url(#logoSpark)"/>
  <text x="354" y="144" fill="#F8FAFC" font-family="ui-sans-serif, system-ui, -apple-system, BlinkMacSystemFont, 'Segoe UI', sans-serif" font-size="78" font-weight="700" letter-spacing="1.2">Kairastra</text>
  <text x="358" y="204" fill="#94A3B8" font-family="ui-sans-serif, system-ui, -apple-system, BlinkMacSystemFont, 'Segoe UI', sans-serif" font-size="28" font-weight="500" letter-spacing="0.8">Align intent. Launch execution. Land the merge.</text>
  <path d="M356 227H878" stroke="url(#logoRing)" stroke-width="3" stroke-linecap="round" stroke-opacity="0.55"/>
</svg>
